<svg width="22" height="21" viewBox="0 0 22 21" fill="none" xmlns="http://www.w3.org/2000/svg">
<path d="M20.904 6.22695L18.6684 4.87512V0.283502C18.6684 0.138305 18.5508 0.0209465 18.4058 0.0209465H15.0915C14.9468 0.0209465 14.8292 0.138305 14.8292 0.283502V2.55398L10.6674 0.0377693C10.6409 0.0219479 10.6119 0.0117341 10.582 0.00692755C10.5152 -0.00869362 10.4451 0.0023213 10.3862 0.0377693L0.157333 6.22695C0.0788268 6.27421 0.0307617 6.35973 0.0307617 6.45145V8.61698C0.0307617 8.71111 0.0810298 8.79803 0.16254 8.84469C0.244251 8.89155 0.344587 8.89115 0.425696 8.84369L1.96618 7.94307V18.5218H1.23319C1.08819 18.5218 0.970834 18.6392 0.970834 18.7843V20.7374C0.970834 20.8824 1.08819 20.9999 1.23319 20.9999H19.8282C19.9732 20.9999 20.0907 20.8824 20.0907 20.7374V18.7843C20.0907 18.6392 19.9732 18.5218 19.8282 18.5218H19.0952V7.94367L20.6359 8.84369C20.6767 8.86752 20.7224 8.87954 20.7682 8.87954C20.8133 8.87954 20.8584 8.86792 20.8988 8.84469C20.9805 8.79803 21.0306 8.71111 21.0306 8.61698V6.45145C21.0306 6.35973 20.9825 6.27421 20.904 6.22695ZM15.3541 0.545857H18.1433V4.55769L15.3541 2.87141V0.545857ZM19.5656 20.4748H1.49574V19.0467H19.5656V20.4748ZM12.8932 18.5218H8.16818V10.3231H12.8932V18.5218ZM18.5703 18.5218H13.4183V10.0605C13.4183 9.91534 13.3007 9.79798 13.1557 9.79798H7.90562C7.76083 9.79798 7.64327 9.91534 7.64327 10.0605V18.5218H2.49109V7.63605L10.5268 2.9377L18.5703 7.63686V18.5218ZM20.5057 8.15976L10.6591 2.40698C10.6183 2.38314 10.5724 2.37113 10.5268 2.37113C10.4809 2.37113 10.4352 2.38314 10.3942 2.40698L0.555672 8.15936V6.59925L10.5268 0.566485L20.5057 6.59925V8.15976Z" fill="#31353B"/>
</svg>
